Coordinates
version=1
nRows=10
nColumns=23
inDegrees=yes

Units are S.I. units (second, meters, Newtons, ...)
Angles are in degrees.

endheader
time	thorax_tilt	thorax_list	thorax_rotation	thorax_tx	thorax_ty	thorax_tz	sternoclavicular_r2	sternoclavicular_r3	unrotscap_r3	unrotscap_r2	acromioclavicular_r2	acromioclavicular_r3	acromioclavicular_r1	unrothum_r1	unrothum_r3	unrothum_r2	elv_angle	shoulder_elv	shoulder1_r2	shoulder_rot	elbow_flexion	pro_sup
      3.06400000	     -6.55985128	     -0.10592648	     -9.46529865	     -0.38329234	      1.58506399	      0.03933964	     -3.04819501	      1.28949022	     -1.29116479	      3.04638579	     -0.61663228	      4.98349055	      2.24035304	     -2.24140086	     -4.98599939	      0.61708536	    -26.43081911	     12.58906781	     26.43057903	     33.86104965	     14.57398842	      1.36576332
      3.06800000	     -6.53315334	     -0.60120291	    -10.26279378	     -0.38148782	      1.58346400	      0.04008608	     -3.03351726	      1.28342298	     -1.28511014	      3.03219057	     -0.61395366	      4.96079780	      2.23017996	     -2.23074805	     -4.96273379	      0.61407186	    -27.58726831	     12.53042964	     27.58719694	     35.22884216	     15.40139245	      2.56516575
      3.07200000	     -6.53364290	     -0.60130065	    -10.26256736	     -0.38149955	      1.58348032	      0.04008910	     -3.03420835	      1.28358396	     -1.28499760	      3.03225202	     -0.61389715	      4.96080785	      2.23009562	     -2.23106263	     -4.96247035	      0.61409940	    -27.58747655	     12.53091813	     27.58741078	     35.22884355	     15.40110354	      2.56532755
      3.07600000	     -6.54058525	     -0.60283206	    -10.26213695	     -0.38164291	      1.58366692	      0.04009446	     -3.03505973	      1.28390906	     -1.28557509	      3.03337042	     -0.61413277	      4.96263633	      2.23102191	     -2.23173338	     -4.96442255	      0.61433093	    -27.58945810	     12.53544062	     27.58940628	     35.22886155	     15.39811415	      2.56668210
      3.08000000	     -6.55515005	     -0.60290530	    -10.25950399	     -0.38170835	      1.58380448	      0.04003340	     -3.03728416	      1.28482981	     -1.28656107	      3.03566075	     -0.61459701	      4.96639912	      2.23274270	     -2.23337282	     -4.96815938	      0.61479391	    -27.59406255	     12.54482166	     27.59425557	     35.22952355	     15.39141128	      2.56994606
      3.08400000	     -6.55534631	     -0.60288799	    -10.25943902	     -0.38170671	      1.58380353	      0.04003353	     -3.03734258	      1.28495494	     -1.28650168	      3.03567333	     -0.61458622	      4.96635062	      2.23259608	     -2.23352385	     -4.96826153	      0.61481231	    -27.59437705	     12.54498435	     27.59408734	     35.22953993	     15.39131515	      2.56999800
      3.08800000	     -6.55590212	     -0.60295366	    -10.25944168	     -0.38170909	      1.58380933	      0.04003302	     -3.03748149	      1.28514786	     -1.28643086	      3.03573453	     -0.61458125	      4.96636690	      2.23243061	     -2.23376590	     -4.96845004	      0.61484377	    -27.59416375	     12.54532828	     27.59458312	     35.22956399	     15.39111076	      2.57008752
      3.09200000	     -6.64972906	     -0.59929265	    -10.25059229	     -0.38131675	      1.58376726	      0.03986935	     -3.05096665	      1.29058637	     -1.29242419	      3.04930332	     -0.61734463	      4.98866739	      2.24284576	     -2.24331488	     -4.99051932	      0.61756880	    -27.62269025	     12.60151144	     27.62269010	     35.23791636	     15.35627855	      2.58894315
      3.09600000	     -6.64982883	     -0.59924358	    -10.25053402	     -0.38132079	      1.58377402	      0.03986867	     -3.05114543	      1.29074190	     -1.29245593	      3.04944086	     -0.61734814	      4.98879797	      2.24283071	     -2.24351667	     -4.99081813	      0.61761970	    -27.62283141	     12.60132160	     27.62274311	     35.23796917	     15.35628062	      2.58902324
      3.10000000	     -6.65398951	     -0.59924762	    -10.25045716	     -0.38142475	      1.58396248	      0.03984883	     -3.05161813	      1.29088841	     -1.29269609	      3.04996269	     -0.61745182	      4.98966398	      2.24325847	     -2.24385826	     -4.99164426	      0.61772488	    -27.62480550	     12.60382567	     27.62478402	     35.23896729	     15.35591116	      2.59055148
